<svg id="visual" viewBox="0 0 900 150" width="100%" height="5%" xmlns="http://www.w3.org/2000/svg" xmlns:xlink="http://www.w3.org/1999/xlink" version="1.1"><g stroke-width="1" stroke-linejoin="bevel"><path d="M467 65.5L493 89.5L508 85Z" fill="#1d4e6b" stroke="#1d4e6b"></path><path d="M508 85L524 63.5L467 65.5Z" fill="#19435d" stroke="#19435d"></path><path d="M567 93L544 48L524 63.5Z" fill="#277297" stroke="#277297"></path><path d="M524 63.5L469 15.5L467 65.5Z" fill="#297ea6" stroke="#297ea6"></path><path d="M518 0L469 15.5L524 63.5Z" fill="#19435d" stroke="#19435d"></path><path d="M544 48L518 0L524 63.5Z" fill="#277297" stroke="#277297"></path><path d="M544 48L558 32.5L518 0Z" fill="#081a28" stroke="#081a28"></path><path d="M432 0L421 77L467 65.5Z" fill="#1d4e6b" stroke="#1d4e6b"></path><path d="M467 65.5L433 108.5L493 89.5Z" fill="#15384f" stroke="#15384f"></path><path d="M421 77L425 91L467 65.5Z" fill="#15384f" stroke="#15384f"></path><path d="M425 91L433 108.5L467 65.5Z" fill="#15384f" stroke="#15384f"></path><path d="M493 89.5L525 133.5L508 85Z" fill="#0c2435" stroke="#0c2435"></path><path d="M466 150L525 133.5L493 89.5Z" fill="#246688" stroke="#246688"></path><path d="M508 85L567 93L524 63.5Z" fill="#112e42" stroke="#112e42"></path><path d="M544 48L567 93L558 32.5Z" fill="#205a7a" stroke="#205a7a"></path><path d="M525 133.5L567 93L508 85Z" fill="#277297" stroke="#277297"></path><path d="M518 0L432 0L469 15.5Z" fill="#277297" stroke="#277297"></path><path d="M469 15.5L432 0L467 65.5Z" fill="#081a28" stroke="#081a28"></path><path d="M425 91L428 125.5L433 108.5Z" fill="#00101c" stroke="#00101c"></path><path d="M433 108.5L466 150L493 89.5Z" fill="#246688" stroke="#246688"></path><path d="M384 150L428 125.5L361 134.5Z" fill="#277297" stroke="#277297"></path><path d="M428 125.5L466 150L433 108.5Z" fill="#15384f" stroke="#15384f"></path><path d="M620 0L562 0L558 32.5Z" fill="#15384f" stroke="#15384f"></path><path d="M558 32.5L562 0L518 0Z" fill="#081a28" stroke="#081a28"></path><path d="M432 0L419 0L421 77Z" fill="#15384f" stroke="#15384f"></path><path d="M428 125.5L445 150L466 150Z" fill="#19435d" stroke="#19435d"></path><path d="M525 133.5L566 132.5L567 93Z" fill="#15384f" stroke="#15384f"></path><path d="M545 150L566 132.5L525 133.5Z" fill="#19435d" stroke="#19435d"></path><path d="M466 150L545 150L525 133.5Z" fill="#277297" stroke="#277297"></path><path d="M419 0L384 50.5L421 77Z" fill="#297ea6" stroke="#297ea6"></path><path d="M421 77L354 70L425 91Z" fill="#081a28" stroke="#081a28"></path><path d="M545 150L573 150L566 132.5Z" fill="#246688" stroke="#246688"></path><path d="M618 150L628 71L567 93Z" fill="#0c2435" stroke="#0c2435"></path><path d="M567 93L628 71L558 32.5Z" fill="#277297" stroke="#277297"></path><path d="M419 0L377 26.5L384 50.5Z" fill="#081a28" stroke="#081a28"></path><path d="M618 150L567 93L566 132.5Z" fill="#081a28" stroke="#081a28"></path><path d="M419 0L372 0L377 26.5Z" fill="#205a7a" stroke="#205a7a"></path><path d="M340 71L354 70L312 34.5Z" fill="#081a28" stroke="#081a28"></path><path d="M377 26.5L354 70L384 50.5Z" fill="#1d4e6b" stroke="#1d4e6b"></path><path d="M384 50.5L354 70L421 77Z" fill="#081a28" stroke="#081a28"></path><path d="M428 125.5L384 150L445 150Z" fill="#205a7a" stroke="#205a7a"></path><path d="M361 134.5L428 125.5L425 91Z" fill="#297ea6" stroke="#297ea6"></path><path d="M628 71L620 0L558 32.5Z" fill="#277297" stroke="#277297"></path><path d="M354 70L361 134.5L425 91Z" fill="#1d4e6b" stroke="#1d4e6b"></path><path d="M628 71L637 14.5L620 0Z" fill="#277297" stroke="#277297"></path><path d="M573 150L618 150L566 132.5Z" fill="#277297" stroke="#277297"></path><path d="M628 71L665 22.5L637 14.5Z" fill="#205a7a" stroke="#205a7a"></path><path d="M312 34.5L354 70L377 26.5Z" fill="#19435d" stroke="#19435d"></path><path d="M354 70L340 71L361 134.5Z" fill="#1d4e6b" stroke="#1d4e6b"></path><path d="M618 150L652 88.5L628 71Z" fill="#297ea6" stroke="#297ea6"></path><path d="M361 134.5L349 150L384 150Z" fill="#0c2435" stroke="#0c2435"></path><path d="M304 99.5L349 150L361 134.5Z" fill="#1d4e6b" stroke="#1d4e6b"></path><path d="M652 88.5L665 22.5L628 71Z" fill="#112e42" stroke="#112e42"></path><path d="M637 14.5L691 0L620 0Z" fill="#1d4e6b" stroke="#1d4e6b"></path><path d="M372 0L312 34.5L377 26.5Z" fill="#15384f" stroke="#15384f"></path><path d="M340 71L304 99.5L361 134.5Z" fill="#297ea6" stroke="#297ea6"></path><path d="M618 150L661 140.5L652 88.5Z" fill="#19435d" stroke="#19435d"></path><path d="M652 88.5L694 53L665 22.5Z" fill="#277297" stroke="#277297"></path><path d="M294 59L304 99.5L340 71Z" fill="#297ea6" stroke="#297ea6"></path><path d="M372 0L310 0L312 34.5Z" fill="#081a28" stroke="#081a28"></path><path d="M312 34.5L294 59L340 71Z" fill="#112e42" stroke="#112e42"></path><path d="M246 60.5L294 59L252 0Z" fill="#15384f" stroke="#15384f"></path><path d="M707 92.5L694 53L652 88.5Z" fill="#246688" stroke="#246688"></path><path d="M291 120.5L308 150L304 99.5Z" fill="#19435d" stroke="#19435d"></path><path d="M304 99.5L308 150L349 150Z" fill="#205a7a" stroke="#205a7a"></path><path d="M710 24.5L691 0L665 22.5Z" fill="#0c2435" stroke="#0c2435"></path><path d="M665 22.5L691 0L637 14.5Z" fill="#277297" stroke="#277297"></path><path d="M246 60.5L291 120.5L304 99.5Z" fill="#19435d" stroke="#19435d"></path><path d="M661 140.5L707 92.5L652 88.5Z" fill="#277297" stroke="#277297"></path><path d="M694 53L710 24.5L665 22.5Z" fill="#297ea6" stroke="#297ea6"></path><path d="M618 150L691 150L661 140.5Z" fill="#297ea6" stroke="#297ea6"></path><path d="M661 140.5L691 150L707 92.5Z" fill="#246688" stroke="#246688"></path><path d="M720 75L710 24.5L694 53Z" fill="#1d4e6b" stroke="#1d4e6b"></path><path d="M751 85L720 75L707 92.5Z" fill="#19435d" stroke="#19435d"></path><path d="M707 92.5L720 75L694 53Z" fill="#205a7a" stroke="#205a7a"></path><path d="M691 150L715 150L707 92.5Z" fill="#15384f" stroke="#15384f"></path><path d="M241 150L269 150L291 120.5Z" fill="#0c2435" stroke="#0c2435"></path><path d="M291 120.5L269 150L308 150Z" fill="#081a28" stroke="#081a28"></path><path d="M246 60.5L304 99.5L294 59Z" fill="#112e42" stroke="#112e42"></path><path d="M710 24.5L727 0L691 0Z" fill="#19435d" stroke="#19435d"></path><path d="M749 0L727 0L754 9.5Z" fill="#1d4e6b" stroke="#1d4e6b"></path><path d="M754 9.5L710 24.5L720 75Z" fill="#081a28" stroke="#081a28"></path><path d="M252 0L294 59L312 34.5Z" fill="#297ea6" stroke="#297ea6"></path><path d="M310 0L252 0L312 34.5Z" fill="#15384f" stroke="#15384f"></path><path d="M752 137.5L751 85L707 92.5Z" fill="#246688" stroke="#246688"></path><path d="M754 9.5L727 0L710 24.5Z" fill="#081a28" stroke="#081a28"></path><path d="M784 41.5L754 9.5L720 75Z" fill="#1d4e6b" stroke="#1d4e6b"></path><path d="M215 81L241 150L291 120.5Z" fill="#112e42" stroke="#112e42"></path><path d="M715 150L752 137.5L707 92.5Z" fill="#19435d" stroke="#19435d"></path><path d="M751 85L784 41.5L720 75Z" fill="#0c2435" stroke="#0c2435"></path><path d="M246 60.5L215 81L291 120.5Z" fill="#15384f" stroke="#15384f"></path><path d="M201 20.5L215 81L246 60.5Z" fill="#15384f" stroke="#15384f"></path><path d="M715 150L765 150L752 137.5Z" fill="#1d4e6b" stroke="#1d4e6b"></path><path d="M752 137.5L787 150L751 85Z" fill="#00101c" stroke="#00101c"></path><path d="M215 81L212 135.5L241 150Z" fill="#112e42" stroke="#112e42"></path><path d="M820 83L784 41.5L751 85Z" fill="#297ea6" stroke="#297ea6"></path><path d="M754 9.5L791 0L749 0Z" fill="#15384f" stroke="#15384f"></path><path d="M252 0L201 20.5L246 60.5Z" fill="#19435d" stroke="#19435d"></path><path d="M215 81L203 119.5L212 135.5Z" fill="#15384f" stroke="#15384f"></path><path d="M153 57L203 119.5L215 81Z" fill="#112e42" stroke="#112e42"></path><path d="M252 0L198 0L201 20.5Z" fill="#1d4e6b" stroke="#1d4e6b"></path><path d="M201 20.5L167 41.5L215 81Z" fill="#297ea6" stroke="#297ea6"></path><path d="M784 41.5L791 0L754 9.5Z" fill="#081a28" stroke="#081a28"></path><path d="M765 150L787 150L752 137.5Z" fill="#081a28" stroke="#081a28"></path><path d="M784 41.5L860 64L791 0Z" fill="#297ea6" stroke="#297ea6"></path><path d="M168 0L167 41.5L201 20.5Z" fill="#15384f" stroke="#15384f"></path><path d="M787 150L820 83L751 85Z" fill="#112e42" stroke="#112e42"></path><path d="M198 0L168 0L201 20.5Z" fill="#15384f" stroke="#15384f"></path><path d="M144 22.5L159 46L167 41.5Z" fill="#277297" stroke="#277297"></path><path d="M167 41.5L153 57L215 81Z" fill="#081a28" stroke="#081a28"></path><path d="M203 119.5L159 150L212 135.5Z" fill="#1d4e6b" stroke="#1d4e6b"></path><path d="M144 22.5L153 57L159 46Z" fill="#112e42" stroke="#112e42"></path><path d="M159 46L153 57L167 41.5Z" fill="#277297" stroke="#277297"></path><path d="M153 57L159 150L203 119.5Z" fill="#19435d" stroke="#19435d"></path><path d="M212 135.5L159 150L241 150Z" fill="#081a28" stroke="#081a28"></path><path d="M168 0L144 22.5L167 41.5Z" fill="#112e42" stroke="#112e42"></path><path d="M116 124.5L147 150L159 150Z" fill="#15384f" stroke="#15384f"></path><path d="M787 150L837 140.5L820 83Z" fill="#297ea6" stroke="#297ea6"></path><path d="M116 124.5L159 150L153 57Z" fill="#0c2435" stroke="#0c2435"></path><path d="M862 126.5L860 64L820 83Z" fill="#19435d" stroke="#19435d"></path><path d="M820 83L860 64L784 41.5Z" fill="#297ea6" stroke="#297ea6"></path><path d="M168 0L131 0L144 22.5Z" fill="#297ea6" stroke="#297ea6"></path><path d="M87 118.5L116 124.5L80 65Z" fill="#0c2435" stroke="#0c2435"></path><path d="M837 140.5L862 126.5L820 83Z" fill="#19435d" stroke="#19435d"></path><path d="M80 65L153 57L144 22.5Z" fill="#112e42" stroke="#112e42"></path><path d="M900 48L879 19.5L860 64Z" fill="#297ea6" stroke="#297ea6"></path><path d="M860 64L879 19.5L791 0Z" fill="#15384f" stroke="#15384f"></path><path d="M787 150L874 150L837 140.5Z" fill="#081a28" stroke="#081a28"></path><path d="M837 140.5L874 150L862 126.5Z" fill="#277297" stroke="#277297"></path><path d="M900 117.5L900 48L860 64Z" fill="#19435d" stroke="#19435d"></path><path d="M879 19.5L879 0L791 0Z" fill="#19435d" stroke="#19435d"></path><path d="M131 0L107 0L144 22.5Z" fill="#297ea6" stroke="#297ea6"></path><path d="M87 118.5L104 150L116 124.5Z" fill="#00101c" stroke="#00101c"></path><path d="M116 124.5L104 150L147 150Z" fill="#15384f" stroke="#15384f"></path><path d="M900 117.5L860 64L862 126.5Z" fill="#19435d" stroke="#19435d"></path><path d="M879 19.5L900 10.5L879 0Z" fill="#19435d" stroke="#19435d"></path><path d="M80 65L116 124.5L153 57Z" fill="#19435d" stroke="#19435d"></path><path d="M900 48L900 10.5L879 19.5Z" fill="#15384f" stroke="#15384f"></path><path d="M874 150L900 117.5L862 126.5Z" fill="#112e42" stroke="#112e42"></path><path d="M900 10.5L900 0L879 0Z" fill="#15384f" stroke="#15384f"></path><path d="M82 14.5L80 65L144 22.5Z" fill="#205a7a" stroke="#205a7a"></path><path d="M107 0L82 14.5L144 22.5Z" fill="#0c2435" stroke="#0c2435"></path><path d="M874 150L900 150L900 117.5Z" fill="#00101c" stroke="#00101c"></path><path d="M22 72L62 121.5L80 65Z" fill="#205a7a" stroke="#205a7a"></path><path d="M80 65L62 121.5L87 118.5Z" fill="#277297" stroke="#277297"></path><path d="M87 118.5L61 150L104 150Z" fill="#15384f" stroke="#15384f"></path><path d="M62 121.5L61 150L87 118.5Z" fill="#081a28" stroke="#081a28"></path><path d="M107 0L50 0L82 14.5Z" fill="#19435d" stroke="#19435d"></path><path d="M82 14.5L27 13.5L80 65Z" fill="#112e42" stroke="#112e42"></path><path d="M62 121.5L0 123.5L61 150Z" fill="#297ea6" stroke="#297ea6"></path><path d="M50 0L27 13.5L82 14.5Z" fill="#277297" stroke="#277297"></path><path d="M27 13.5L22 72L80 65Z" fill="#277297" stroke="#277297"></path><path d="M0 16.5L0 92L22 72Z" fill="#00101c" stroke="#00101c"></path><path d="M22 72L0 92L62 121.5Z" fill="#205a7a" stroke="#205a7a"></path><path d="M0 0L0 16.5L27 13.5Z" fill="#081a28" stroke="#081a28"></path><path d="M27 13.5L0 16.5L22 72Z" fill="#1d4e6b" stroke="#1d4e6b"></path><path d="M0 92L0 123.5L62 121.5Z" fill="#081a28" stroke="#081a28"></path><path d="M50 0L0 0L27 13.5Z" fill="#19435d" stroke="#19435d"></path><path d="M0 123.5L0 150L61 150Z" fill="#15384f" stroke="#15384f"></path></g></svg>